<svg width="46" height="46" viewBox="0 0 46 46" fill="none" xmlns="http://www.w3.org/2000/svg">
<g clip-path="url(#clip0_1_93266)">
<g clip-path="url(#clip1_1_93266)">
<path d="M30.9043 20.9149C30.6117 20.7418 30.2402 20.8496 30.0747 21.1556C29.9093 21.4616 30.0123 21.8511 30.3054 22.0241C30.7548 22.2918 31.0291 22.5904 31.2105 22.899C30.4599 23.1748 29.7945 23.2883 29.2066 23.2883C28.3463 23.2874 27.6425 23.0499 27.0491 22.686C26.4572 22.3212 25.9786 21.8225 25.6157 21.305C25.0175 20.4521 24.2392 19.6924 23.3219 19.1381C22.4059 18.5856 21.3462 18.2403 20.2089 18.2403C19.2116 18.2395 18.1606 18.5081 17.1193 19.1062C16.6936 19.3503 16.3245 19.6359 16.0031 19.9477C14.7362 20.4578 13.6446 20.6414 12.7212 20.6414C11.4055 20.6414 10.4227 20.2716 9.76568 19.9084C9.43758 19.7272 9.19219 19.5469 9.03337 19.4163C8.95374 19.3502 8.89574 19.2979 8.8597 19.2637L8.82226 19.2261L8.81637 19.2204H8.81611C8.58276 18.9698 8.19885 18.9634 7.95733 19.2065C7.71545 19.4505 7.70842 19.8537 7.94177 20.1067C7.9757 20.1427 8.39432 20.5907 9.19571 21.0347C9.54648 21.229 9.97644 21.4199 10.4731 21.5758C10.3412 21.7701 10.161 22.054 9.96475 22.4156C9.58744 23.1118 9.15396 24.0888 8.93309 25.2412C8.86717 25.5856 9.08101 25.9211 9.41069 25.9904C9.74037 26.0589 10.0614 25.8352 10.127 25.4901C10.3123 24.5197 10.6907 23.6571 11.0239 23.0441C11.1901 22.7372 11.3443 22.4932 11.4551 22.3291C11.5105 22.2467 11.555 22.1838 11.5847 22.143C11.5994 22.1233 11.6108 22.1079 11.6174 22.0989L11.6245 22.0899L11.6253 22.0891L11.6256 22.0882C11.6818 22.0164 11.7193 21.9356 11.7407 21.8508C12.0505 21.8907 12.3759 21.9152 12.7212 21.9144C13.3614 21.9152 14.0625 21.8361 14.8175 21.6565C14.4432 22.5004 14.2892 23.3811 14.2888 24.1883C14.2903 25.0012 14.4382 25.739 14.702 26.3266C14.8458 26.645 15.2091 26.7804 15.513 26.6302C15.8169 26.48 15.9468 26.0997 15.8029 25.7823V25.7815C15.6336 25.4126 15.5048 24.8315 15.5068 24.1883C15.5063 23.4946 15.6495 22.7306 15.9929 22.0336C16.3381 21.3366 16.8743 20.7008 17.7049 20.2225C18.5815 19.7206 19.4184 19.5149 20.2089 19.5141C21.1089 19.5141 21.9568 19.786 22.7136 20.2413C23.4698 20.6975 24.1303 21.3398 24.6335 22.058C25.0763 22.6897 25.6687 23.3133 26.4311 23.7834C27.1918 24.2535 28.1259 24.5628 29.2066 24.5619C29.9217 24.5619 30.6986 24.4264 31.5328 24.1293L31.5347 24.175C31.5347 24.4868 31.4883 24.7708 31.4419 24.9716C31.4188 25.072 31.3958 25.1512 31.3798 25.2026C31.3717 25.2279 31.3654 25.2466 31.3615 25.2572L31.358 25.267L31.3577 25.2686H31.358C31.2347 25.5943 31.3865 25.9632 31.6978 26.0937C32.0099 26.2244 32.3646 26.0652 32.4894 25.7387C32.505 25.693 32.7501 25.0573 32.7524 24.1749C32.7524 23.6689 32.6677 23.0747 32.3864 22.488C32.1071 21.9016 31.6249 21.3385 30.9043 20.9149Z" fill="#4F9CF9"/>
<path d="M32.2622 16.6618C30.5885 16.6618 29.2444 16.017 28.3147 15.1731C27.8508 14.7519 27.4941 14.281 27.2597 13.8305C27.0241 13.3792 26.916 12.9499 26.9175 12.6283C26.9175 12.2765 26.6448 11.9917 26.3085 11.9917C25.9723 11.9917 25.6998 12.2765 25.6998 12.6283C25.7014 13.2273 25.8804 13.8411 26.1902 14.4385C26.5145 15.0605 26.9881 15.6644 27.5902 16.1965C27.4688 16.3728 27.3014 16.5998 27.0876 16.8429C26.6237 17.3726 25.9551 17.9594 25.1567 18.2557C24.84 18.374 24.6749 18.7389 24.7881 19.0694C24.9012 19.4008 25.2497 19.5739 25.5661 19.4554C26.6496 19.0481 27.4606 18.3055 28.0108 17.6737C28.2559 17.3913 28.4466 17.1334 28.5875 16.927C29.5949 17.535 30.839 17.9365 32.2623 17.9357C32.5983 17.9357 32.8714 17.6509 32.8714 17.2991C32.8712 16.9475 32.5981 16.6618 32.2622 16.6618Z" fill="#4F9CF9"/>
<path d="M28.2028 29.1164C27.0636 29.1164 26.1584 28.8862 25.4311 28.5345C24.3426 28.0056 23.6364 27.1928 23.192 26.3822C22.9705 25.9782 22.8175 25.5759 22.7211 25.2225C22.6244 24.8707 22.5865 24.5622 22.5873 24.3753C22.5873 24.0236 22.315 23.7386 21.9786 23.7386C21.6419 23.7386 21.3696 24.0235 21.3696 24.3753C21.3696 24.6047 21.3957 24.8585 21.4493 25.1376C21.5421 25.624 21.7188 26.1864 22.0053 26.7658C22.4349 27.6343 23.1168 28.545 24.1359 29.2373C24.391 29.4118 24.6673 29.5702 24.9645 29.7122C25.0109 29.9211 25.0754 30.2932 25.0749 30.7421C25.0749 31.0687 25.0413 31.4326 24.947 31.8057C24.8526 32.1786 24.6988 32.559 24.4546 32.9287C24.2631 33.2184 24.3321 33.615 24.6087 33.815C24.8854 34.015 25.2646 33.9432 25.4558 33.6542C25.7882 33.1515 25.9988 32.6292 26.1245 32.1313C26.2505 31.6326 26.2926 31.1585 26.2926 30.7421C26.2926 30.534 26.2817 30.3414 26.2653 30.1652C26.8522 30.308 27.4951 30.3912 28.2028 30.3904C28.5388 30.3904 28.8115 30.1048 28.8115 29.753C28.8115 29.402 28.5388 29.1164 28.2028 29.1164Z" fill="#4F9CF9"/>
<path d="M36.4739 19.5497C36.1724 19.278 35.847 19.0551 35.5036 18.8967C35.1606 18.7384 34.7982 18.6437 34.4271 18.6437C34.0908 18.6437 33.8181 18.9285 33.8181 19.2804C33.8181 19.633 34.0908 19.9178 34.4271 19.9178C34.6511 19.917 34.9343 19.9986 35.232 20.179C35.6783 20.4467 36.1423 20.9273 36.4797 21.5297C36.8191 22.1312 37.0341 22.847 37.0338 23.5864C37.031 24.4001 36.786 25.2489 36.1228 26.0929C35.9086 26.3646 35.9452 26.7654 36.2047 26.9898C36.4638 27.2134 36.8477 27.1751 37.0619 26.9041C37.8976 25.8495 38.2541 24.68 38.2514 23.5864C38.2514 22.922 38.1242 22.2863 37.9105 21.7068C37.5889 20.8383 37.0767 20.0948 36.4739 19.5497Z" fill="#4F9CF9"/>
<path d="M15.272 16.1546V16.1537C15.6903 15.6354 16.2861 15.229 16.9653 14.9556C17.6434 14.6814 18.4003 14.5442 19.1084 14.5451C19.7982 14.5434 20.4404 14.6764 20.9114 14.9058C21.2169 15.0527 21.5785 14.914 21.7198 14.5941C21.8606 14.2749 21.7272 13.8971 21.4221 13.7492C20.7418 13.422 19.9423 13.2718 19.1085 13.271C18.2525 13.271 17.3594 13.4326 16.5276 13.7663C15.6978 14.101 14.9249 14.612 14.3424 15.331C14.1251 15.5995 14.1571 16.0018 14.4138 16.2287C14.6704 16.4565 15.0547 16.4222 15.272 16.1546Z" fill="#4F9CF9"/>
<path d="M42.8311 14.3139L42.8323 14.3148L42.8311 14.3139Z" fill="#4F9CF9"/>
<path d="M30.0453 35.5765V35.5775H30.0447L30.0453 35.5765Z" fill="#4F9CF9"/>
<path d="M43.7611 18.6257C43.6534 18.5114 43.5379 18.4028 43.4209 18.296C43.4821 17.9393 43.5176 17.5761 43.5176 17.2072C43.518 16.2295 43.2953 15.2338 42.8314 14.3148C42.3011 13.2611 41.5157 12.4253 40.5989 11.8589C39.9575 11.4622 39.2521 11.1978 38.521 11.0746C38.3435 10.4143 38.0652 9.78581 37.6914 9.21539C37.0692 8.2654 36.1843 7.47867 35.1016 6.99136C34.3272 6.64286 33.5144 6.47555 32.7162 6.47555C32.7162 6.47555 32.6916 6.47472 32.6468 6.47886C31.6331 6.49117 30.6465 6.76944 29.7736 7.2779C29.4323 6.84777 29.0375 6.46498 28.5981 6.14258C27.6352 5.43501 26.4577 5.01544 25.1979 5.00239C25.1834 5.00156 25.1659 5.00083 25.1444 5C25.1417 5 25.139 5 25.1359 5H25.1351H25.1343H25.134C25.1321 5 25.1301 5 25.1282 5C25.1165 5 25.1024 5.00083 25.0845 5.00156C23.9875 5.01057 22.9508 5.32727 22.0651 5.87562C21.6812 6.11234 21.3309 6.39713 21.0094 6.71383C20.0918 6.11555 19.0075 5.76623 17.8526 5.76053L17.8484 5.75979H17.821C17.8203 5.75979 17.8198 5.75979 17.8191 5.75979C17.8175 5.75979 17.8159 5.75979 17.8141 5.75979C17.8 5.75979 17.7825 5.76053 17.7602 5.76218C16.5316 5.77441 15.3794 6.17273 14.4295 6.8485C13.879 7.23947 13.3972 7.72348 12.9987 8.27753C12.4947 8.13477 11.9684 8.05727 11.4307 8.05727C10.9832 8.05727 10.5295 8.11031 10.0777 8.21806C8.74722 8.53714 7.61079 9.30024 6.7964 10.3196H6.79684C6.22528 11.0337 5.8129 11.876 5.58658 12.7844C4.71884 13.0922 3.9011 13.608 3.21714 14.3367C3.21679 14.3376 3.216 14.3384 3.21521 14.3392C2.06814 15.5626 1.4907 17.1631 1.49114 18.7522V18.7546V18.7579C1.49114 18.7579 1.49114 18.7594 1.49114 18.7611V18.7782H1.49149C1.49299 19.3307 1.56444 19.8816 1.70375 20.417C0.921788 21.5116 0.50044 22.8411 0.5 24.2017C0.499649 25.2088 0.731856 26.233 1.21438 27.1773C1.75666 28.2375 2.55418 29.0773 3.48195 29.6462C4.1327 30.0452 4.84707 30.309 5.58711 30.433C5.98121 31.5405 6.65691 32.4962 7.52149 33.2038C8.5499 34.047 9.84726 34.5456 11.2373 34.5456C11.3817 34.5456 11.5257 34.5408 11.6696 34.5293H11.6731H11.675H11.6755H11.6758C12.2895 34.4828 12.8775 34.3384 13.4252 34.1156C13.7892 34.726 14.2468 35.2654 14.7783 35.7103C15.8063 36.5713 17.1137 37.0856 18.5151 37.0921C18.5202 37.0929 18.5244 37.0929 18.5288 37.0929C18.5336 37.0929 18.5381 37.0929 18.5425 37.0929H18.5433C18.5438 37.0929 18.5438 37.0929 18.5438 37.0929H18.5449H18.5512C18.5532 37.0929 18.554 37.0929 18.5559 37.0929L18.5711 37.0921H18.5754C18.6874 37.0913 18.7998 37.0864 18.9117 37.0791H18.9133L18.9792 37.0774C19.4809 37.039 19.9655 36.9369 20.4247 36.7787C21.0033 37.6773 21.809 38.4355 22.8058 38.9383H22.8054C23.6465 39.3627 24.5439 39.5659 25.4246 39.5659C26.282 39.5659 27.1208 39.3709 27.8902 39.0101C29.0084 40.2523 30.585 40.9983 32.281 41C32.6529 41 33.0289 40.9641 33.4051 40.8898C34.8499 40.6058 36.0878 39.7969 36.954 38.6927H36.9536C37.5193 37.9737 37.9263 37.1249 38.144 36.2091C39.1431 36.1064 40.1345 35.7423 41.0108 35.0975C41.8446 34.4854 42.4907 33.6855 42.9237 32.7927C43.3569 31.9006 43.58 30.9163 43.58 29.9231C43.58 29.2612 43.477 28.5967 43.2745 27.9561C43.7946 27.513 44.2545 26.9726 44.6213 26.3401C45.2144 25.3199 45.4999 24.1822 45.4999 23.064C45.4996 21.4292 44.8937 19.8254 43.7611 18.6257ZM42.7997 25.1827C42.1876 26.2371 41.2008 26.8934 40.1229 27.0884C39.7912 27.148 39.5689 27.4778 39.6257 27.8237C39.6827 28.1706 39.9976 28.4032 40.3289 28.3436C40.5766 28.2996 40.8205 28.2351 41.0597 28.1535C41.3202 28.7167 41.4487 29.3206 41.4487 29.923C41.449 30.5669 41.3036 31.2067 41.0235 31.7838C40.7429 32.3609 40.3293 32.8741 39.7862 33.2741C39.1024 33.7752 38.3259 34.0144 37.5522 34.0152C37.4918 34.0152 37.4313 34.0103 37.3708 34.0071C37.358 33.901 37.3454 33.7957 37.3267 33.6904V33.6896C37.1933 32.9509 36.9186 32.2751 36.5413 31.6884L36.4953 31.6165L36.4328 31.5601C35.9712 31.1472 35.3591 30.4681 34.8866 29.7761C34.6498 29.4308 34.4473 29.0814 34.3112 28.7705C34.1734 28.4596 34.1103 28.1877 34.1125 28.027C34.1125 27.9552 34.1227 27.9071 34.1341 27.8744C34.1461 27.8426 34.1575 27.8238 34.1813 27.7978C34.4188 27.5496 34.4188 27.1456 34.1813 26.8975C33.9433 26.6486 33.5578 26.6486 33.3201 26.8975V26.8968C33.1719 27.0518 33.06 27.2386 32.9912 27.4345C32.9226 27.6304 32.8949 27.832 32.8949 28.0271C32.8972 28.4687 33.0248 28.8865 33.2043 29.3011C33.4763 29.9197 33.882 30.5343 34.3201 31.095C34.7325 31.6223 35.1714 32.0948 35.5643 32.4572C35.8347 32.893 36.0322 33.3844 36.1297 33.9254C36.1707 34.1532 36.1933 34.3792 36.1964 34.5971L36.1968 34.6004C36.1972 34.6298 36.1976 34.6584 36.1976 34.6877C36.1976 35.6509 35.8702 36.5608 35.3072 37.2782C34.7434 37.9949 33.9502 38.5139 33.0112 38.6991C32.7654 38.7474 32.5215 38.771 32.2816 38.771C30.9902 38.7718 29.7955 38.0944 29.0777 37.0138C29.464 36.6041 29.7932 36.1225 30.0452 35.5774C30.3578 34.9016 30.5216 34.1866 30.5516 33.4799C30.5665 33.1272 30.3059 32.8302 29.9703 32.8147C29.6341 32.7992 29.3496 33.0717 29.3347 33.4228C29.3117 33.9639 29.1877 34.5058 28.9485 35.0223L28.9482 35.024C28.6929 35.5773 28.3356 36.0401 27.9107 36.4066L27.9084 36.4082C27.2105 37.0073 26.3271 37.337 25.4247 37.337C24.8559 37.337 24.2796 37.2064 23.7314 36.9305C22.7162 36.4179 22.0112 35.512 21.6995 34.4707L21.699 34.4698C21.58 34.0747 21.5184 33.661 21.5184 33.244C21.5184 32.649 21.6433 32.0467 21.9081 31.4705C22.0545 31.1538 21.9269 30.7735 21.6241 30.6209C21.3214 30.4683 20.9573 30.6013 20.8114 30.918C20.4657 31.6672 20.3007 32.463 20.3007 33.2441C20.3007 33.6227 20.3421 33.9974 20.417 34.3647C19.9414 34.6364 19.4049 34.8094 18.8251 34.8545H18.824C18.7296 34.861 18.6359 34.8642 18.5439 34.8642C17.6297 34.8642 16.7827 34.5328 16.1093 33.9698C15.5232 33.48 15.0742 32.8165 14.8343 32.0484C15.263 31.6061 15.6181 31.0887 15.8775 30.5149C16.021 30.1974 15.8911 29.8171 15.5872 29.6669C15.2833 29.5166 14.92 29.6521 14.7764 29.9705C14.5353 30.5042 14.1858 30.9777 13.7554 31.3571C13.146 31.8949 12.3762 32.2419 11.5191 32.3063H11.5179C11.4238 32.3128 11.3302 32.3169 11.2378 32.3169C9.30418 32.3177 7.65386 30.8258 7.37524 28.8263L7.37454 28.8213L7.37375 28.8163C7.3589 28.7217 7.34835 28.6221 7.34132 28.5193C7.33473 28.4197 7.3313 28.3217 7.3313 28.2238C7.3313 27.9659 7.35433 27.7137 7.39792 27.4681C7.45883 27.122 7.24033 26.7899 6.90951 26.7253C6.57904 26.6616 6.2615 26.8902 6.20024 27.2363C6.14363 27.5562 6.11357 27.8867 6.11357 28.2238L6.1148 28.2605C5.56742 28.1968 5.03604 28.0149 4.56002 27.7227C3.95955 27.3546 3.44732 26.8168 3.09383 26.1263C2.77936 25.5109 2.63152 24.8531 2.63108 24.2026C2.63108 23.3636 2.88008 22.5393 3.3408 21.8505C3.51711 22.1117 3.71812 22.3598 3.9432 22.5907C4.45631 23.118 5.05159 23.509 5.68256 23.7636C5.99589 23.891 6.34859 23.7277 6.46988 23.3996C6.59126 23.0715 6.43525 22.7026 6.12192 22.576C5.64046 22.381 5.1887 22.0848 4.79653 21.6816L4.79574 21.6808C4.45086 21.3274 4.18279 20.9243 3.98961 20.4925C3.74501 19.9457 3.62214 19.3523 3.62214 18.7581C3.62249 17.724 3.99198 16.6965 4.73756 15.8992C5.37151 15.2242 6.16947 14.8291 6.99881 14.7108H6.9996H7.00039L7.00268 14.71C7.17793 14.6855 7.35424 14.6725 7.53134 14.6733C8.51967 14.6741 9.50396 15.061 10.266 15.8404C10.5063 16.086 10.8917 16.082 11.127 15.8307C11.3623 15.5793 11.358 15.1761 11.1177 14.9304C10.1481 13.9371 8.89074 13.4295 7.63127 13.4042C7.77488 12.7945 8.04875 12.2282 8.43107 11.7507C8.96009 11.0896 9.68782 10.5999 10.5542 10.391C10.8485 10.3207 11.1419 10.2865 11.4305 10.2865C11.9408 10.2865 12.4368 10.3926 12.8951 10.5869C12.7648 11.061 12.6931 11.5614 12.6931 12.078C12.6931 12.4297 12.9658 12.7146 13.3021 12.7146C13.6383 12.7146 13.9107 12.4298 13.9107 12.078C13.9107 11.5205 14.018 10.9884 14.2096 10.5052C14.5037 9.76742 15.0008 9.13734 15.6262 8.6925C16.2529 8.24775 17.0047 7.9898 17.8201 7.98897C18.9932 7.9898 20.0413 8.52684 20.7595 9.38297L20.7607 9.3838C21.3646 10.1028 21.7287 11.043 21.7291 12.0779C21.7291 12.4296 22.0014 12.7145 22.3381 12.7145C22.6745 12.7145 22.9467 12.4297 22.9467 12.0779C22.9472 10.9018 22.5835 9.8098 21.9675 8.92581C22.2827 8.46884 22.6846 8.08191 23.1496 7.79463C23.7317 7.43473 24.4075 7.22909 25.1347 7.22909C25.97 7.22909 26.7386 7.50166 27.3734 7.96773C28.0082 8.43289 28.5053 9.09156 28.7858 9.85953L28.7854 9.8588C28.9509 10.3134 29.0418 10.8023 29.0421 11.3181C29.0421 11.6698 29.3145 11.9548 29.6509 11.9548C29.9871 11.9548 30.2599 11.6699 30.2599 11.3181C30.2599 10.7924 30.1845 10.2848 30.0495 9.80493C30.7705 9.10222 31.7275 8.70473 32.7151 8.70473C33.2308 8.70473 33.7537 8.81247 34.2593 9.03935C34.9644 9.35687 35.5305 9.86201 35.9342 10.4774C36.3377 11.0919 36.5757 11.8159 36.6159 12.5634C36.6198 12.6402 36.6222 12.7177 36.6222 12.7952C36.6217 13.3346 36.5199 13.8808 36.303 14.4096C36.1703 14.7329 36.3128 15.1074 36.6217 15.2461C36.9308 15.3856 37.2888 15.2355 37.4215 14.9123C37.6474 14.3639 37.7773 13.795 37.8213 13.2286C38.4183 13.2703 38.9997 13.4596 39.5146 13.7779C40.1025 14.1419 40.6027 14.6724 40.9457 15.3531V15.3538C41.2457 15.9481 41.3862 16.5814 41.3865 17.2074C41.3865 17.4947 41.3549 17.7786 41.2968 18.057C40.9292 17.9084 40.5519 17.8064 40.1715 17.7501C39.8387 17.7011 39.531 17.9436 39.4841 18.2929C39.4373 18.6407 39.6691 18.963 40.0023 19.012C40.3842 19.0683 40.7608 19.1834 41.122 19.3613C41.186 19.4698 41.2804 19.5604 41.401 19.6143C41.4763 19.6477 41.5543 19.6641 41.6316 19.6648C41.8562 19.8216 42.0608 19.9971 42.2433 20.1913L42.2351 20.1824L42.2449 20.193C42.974 20.9634 43.3688 22.004 43.3685 23.0642C43.3686 23.7878 43.186 24.5184 42.7997 25.1827Z" fill="#4F9CF9"/>
</g>
</g>
<defs>
<clipPath id="clip0_1_93266">
<rect width="45" height="45" fill="white" transform="translate(0.25 0.5)"/>
</clipPath>
<clipPath id="clip1_1_93266">
<rect width="45" height="36" fill="white" transform="translate(0.5 5)"/>
</clipPath>
</defs>
</svg>
